<svg width="16" height="17" viewBox="0 0 16 17" fill="none" xmlns="http://www.w3.org/2000/svg">
<path d="M4.88894 3.32887H3.33339C2.47428 3.32887 1.77783 4.02532 1.77783 4.88443V14.2178C1.77783 15.0769 2.47428 15.7733 3.33339 15.7733H11.1112C11.9703 15.7733 12.6667 15.0769 12.6667 14.2178V13.44M4.88894 3.32887C4.88894 4.18798 5.58539 4.88443 6.4445 4.88443H8.00005C8.85916 4.88443 9.55561 4.18798 9.55561 3.32887M4.88894 3.32887C4.88894 2.46976 5.58539 1.77332 6.4445 1.77332H8.00005C8.85916 1.77332 9.55561 2.46976 9.55561 3.32887M9.55561 3.32887H11.1112C11.9703 3.32887 12.6667 4.02532 12.6667 4.88443V7.21776M14.2223 10.3289H6.4445M6.4445 10.3289L8.77783 7.99554M6.4445 10.3289L8.77783 12.6622" stroke="#F97316" stroke-width="1.67" stroke-linecap="round" stroke-linejoin="round"/>
</svg>
