<svg width="16" height="16" viewBox="0 0 16 16" fill="none" xmlns="http://www.w3.org/2000/svg">
<path d="M6.35366 9.55556H2.64838C1.49201 9.55556 0.739906 8.33862 1.25705 7.30433L3.97927 1.85989C4.24277 1.33289 4.7814 1 5.3706 1H8.4955C8.62268 1 8.74939 1.0156 8.87278 1.04645L11.7981 1.77778M6.35366 9.55556V13.4444C6.35366 14.3036 7.05011 15 7.90922 15H7.98348C8.37202 15 8.687 14.685 8.687 14.2965C8.687 13.7409 8.85145 13.1978 9.15962 12.7355L11.7981 8.77778V1.77778M6.35366 9.55556H7.90922M11.7981 1.77778H13.3537C14.2128 1.77778 14.9092 2.47422 14.9092 3.33333V8C14.9092 8.85911 14.2128 9.55556 13.3537 9.55556H11.4092" stroke="#E2E8F0" stroke-width="1.67" stroke-linecap="round" stroke-linejoin="round"/>
</svg>
