<svg width="16" height="16" viewBox="0 0 16 16" fill="none" xmlns="http://www.w3.org/2000/svg">
<path d="M9.64638 6.44444H13.3517C14.508 6.44444 15.2601 7.66138 14.743 8.69567L12.0208 14.1401C11.7573 14.6671 11.2186 15 10.6294 15H7.50454C7.37736 15 7.25065 14.9844 7.12726 14.9536L4.20193 14.2222M9.64638 6.44444V2.55556C9.64638 1.69645 8.94993 1 8.09082 1H8.01656C7.62802 1 7.31304 1.31498 7.31304 1.70352C7.31304 2.25909 7.14859 2.80223 6.84042 3.26449L4.20193 7.22222V14.2222M9.64638 6.44444H8.09082M4.20193 14.2222H2.64638C1.78727 14.2222 1.09082 13.5258 1.09082 12.6667V8C1.09082 7.14089 1.78727 6.44444 2.64638 6.44444H4.59082" stroke="#FFF7ED" stroke-width="1.67" stroke-linecap="round" stroke-linejoin="round"/>
</svg>
