<svg width="197" height="43" viewBox="0 0 197 43" fill="none" xmlns="http://www.w3.org/2000/svg">
<mask id="mask0_3598_11520" style="mask-type:alpha" maskUnits="userSpaceOnUse" x="0" y="0" width="43" height="43">
<path d="M0 18C0 9.51472 0 5.27208 2.63604 2.63604C5.27208 0 9.51472 0 18 0H25C33.4853 0 37.7279 0 40.364 2.63604C43 5.27208 43 9.51472 43 18V25C43 33.4853 43 37.7279 40.364 40.364C37.7279 43 33.4853 43 25 43H18C9.51472 43 5.27208 43 2.63604 40.364C0 37.7279 0 33.4853 0 25V18Z" fill="#D9D9D9"/>
<path d="M0 18C0 9.51472 0 5.27208 2.63604 2.63604C5.27208 0 9.51472 0 18 0H25C33.4853 0 37.7279 0 40.364 2.63604C43 5.27208 43 9.51472 43 18V25C43 33.4853 43 37.7279 40.364 40.364C37.7279 43 33.4853 43 25 43H18C9.51472 43 5.27208 43 2.63604 40.364C0 37.7279 0 33.4853 0 25V18Z" fill="url(#paint0_linear_3598_11520)"/>
</mask>
<g mask="url(#mask0_3598_11520)">
<path d="M0 18C0 9.51472 0 5.27208 2.63604 2.63604C5.27208 0 9.51472 0 18 0H25C33.4853 0 37.7279 0 40.364 2.63604C43 5.27208 43 9.51472 43 18V25C43 33.4853 43 37.7279 40.364 40.364C37.7279 43 33.4853 43 25 43H18C9.51472 43 5.27208 43 2.63604 40.364C0 37.7279 0 33.4853 0 25V18Z" fill="#D9D9D9"/>
<path d="M0 18C0 9.51472 0 5.27208 2.63604 2.63604C5.27208 0 9.51472 0 18 0H25C33.4853 0 37.7279 0 40.364 2.63604C43 5.27208 43 9.51472 43 18V25C43 33.4853 43 37.7279 40.364 40.364C37.7279 43 33.4853 43 25 43H18C9.51472 43 5.27208 43 2.63604 40.364C0 37.7279 0 33.4853 0 25V18Z" fill="url(#paint1_linear_3598_11520)"/>
<path d="M9 15.5704C9 11.9417 11.9417 9 15.5704 9H35.2817C35.3005 9 35.3158 9.01527 35.3158 9.03411V12.2895C35.3158 13.4941 35.3158 14.0964 35.0648 14.549C34.8832 14.8764 34.6133 15.1463 34.2858 15.328C33.8333 15.5789 33.231 15.5789 32.0263 15.5789H9.00853C9.00382 15.5789 9 15.5751 9 15.5704Z" fill="white"/>
<path d="M18.6582 25.9665C18.6582 22.119 21.7772 19 25.6247 19H27.6151C27.6389 19 27.6582 19.0193 27.6582 19.0431V22.5C27.6582 23.9045 27.6582 24.6067 27.3211 25.1111C27.1752 25.3295 26.9877 25.517 26.7693 25.6629C26.2649 26 25.5627 26 24.1582 26H18.6917C18.6732 26 18.6582 25.985 18.6582 25.9665Z" fill="white"/>
<path d="M9.1582 23.8654C9.1582 20.0737 12.2319 17 16.0236 17C16.0979 17 16.1582 17.0603 16.1582 17.1346L16.1582 31.7692C16.1582 31.9835 16.1582 32.0907 16.1527 32.1811C16.0611 33.6954 14.8536 34.9029 13.3393 34.9945C13.2489 35 13.1417 35 12.9274 35L9.75536 35C9.42556 35 9.1582 34.7326 9.1582 34.4028L9.1582 23.8654Z" fill="white"/>
<g style="mix-blend-mode:overlay" filter="url(#filter0_f_3598_11520)">
<path d="M51 -1C51 6.73199 38.9117 13 24 13C9.08831 13 -3 6.73199 -3 -1C-3 -8.73199 9.08831 -15 24 -15C38.9117 -15 51 -8.73199 51 -1Z" fill="white" fill-opacity="0.64"/>
</g>
</g>
<path d="M71.4 23.894H61.608V34.658H57V8.34202H73.272V12.59H61.608V19.754H71.4V23.894Z" fill="white"/>
<path d="M80.1258 34.658H75.7698V7.87402H80.1258V34.658Z" fill="white"/>
<path d="M88.9449 35.126C85.1649 35.126 82.8609 32.93 82.8609 29.582C82.8609 26.306 85.2369 24.254 89.4489 23.93L94.7769 23.534V23.138C94.7769 20.726 93.3369 19.754 91.1049 19.754C88.5129 19.754 87.0729 20.834 87.0729 22.706H83.3289C83.3289 18.854 86.4969 16.334 91.3209 16.334C96.1089 16.334 99.0609 18.926 99.0609 23.858V34.658H95.2089L94.8849 32.03C94.1289 33.866 91.7169 35.126 88.9449 35.126ZM90.3849 31.814C93.0849 31.814 94.8129 30.194 94.8129 27.458V26.522L91.1049 26.81C88.3689 27.062 87.3249 27.962 87.3249 29.402C87.3249 31.022 88.4049 31.814 90.3849 31.814Z" fill="white"/>
<path d="M113.456 16.802V20.87H111.836C108.668 20.87 106.688 22.562 106.688 26.018V34.658H102.296V16.91H106.436L106.688 19.502C107.444 17.738 109.136 16.55 111.512 16.55C112.124 16.55 112.736 16.622 113.456 16.802Z" fill="white"/>
<path d="M122.707 35.126C117.415 35.126 113.707 31.274 113.707 25.766C113.707 20.186 117.343 16.334 122.563 16.334C127.891 16.334 131.275 19.898 131.275 25.442V26.774L117.883 26.81C118.207 29.942 119.863 31.526 122.779 31.526C125.191 31.526 126.775 30.59 127.279 28.898H131.347C130.591 32.786 127.351 35.126 122.707 35.126ZM122.599 19.934C120.007 19.934 118.423 21.338 117.991 24.002H126.919C126.919 21.554 125.227 19.934 122.599 19.934Z" fill="white"/>
<path d="M138.966 8.34202V30.41H149.982V34.658H134.358V8.34202H138.966Z" fill="#94A3B8"/>
<path d="M154.197 13.31C152.685 13.31 151.497 12.122 151.497 10.646C151.497 9.17002 152.685 8.01802 154.197 8.01802C155.637 8.01802 156.825 9.17002 156.825 10.646C156.825 12.122 155.637 13.31 154.197 13.31ZM152.001 34.658V16.874H156.393V34.658H152.001Z" fill="#94A3B8"/>
<path d="M164.243 34.658H159.851V16.874H163.919L164.279 19.178C165.395 17.378 167.555 16.334 169.967 16.334C174.431 16.334 176.735 19.106 176.735 23.714V34.658H172.343V24.758C172.343 21.77 170.867 20.33 168.599 20.33C165.899 20.33 164.243 22.202 164.243 25.082V34.658Z" fill="#94A3B8"/>
<path d="M184.398 34.658H180.042V7.87402H184.398V24.326L191.31 16.874H196.818L190.05 23.93L196.674 34.658H191.634L186.99 27.17L184.398 29.87V34.658Z" fill="#94A3B8"/>
<defs>
<filter id="filter0_f_3598_11520" x="-23" y="-35" width="94" height="68" filterUnits="userSpaceOnUse" color-interpolation-filters="sRGB">
<feFlood flood-opacity="0" result="BackgroundImageFix"/>
<feBlend mode="normal" in="SourceGraphic" in2="BackgroundImageFix" result="shape"/>
<feGaussianBlur stdDeviation="10" result="effect1_foregroundBlur_3598_11520"/>
</filter>
<linearGradient id="paint0_linear_3598_11520" x1="21.5" y1="67.2742" x2="67.8251" y2="29.501" gradientUnits="userSpaceOnUse">
<stop stop-color="#E42058"/>
<stop offset="1" stop-color="#FFA36F"/>
</linearGradient>
<linearGradient id="paint1_linear_3598_11520" x1="21.5" y1="67.2742" x2="67.8251" y2="29.501" gradientUnits="userSpaceOnUse">
<stop stop-color="#E42058"/>
<stop offset="1" stop-color="#FFA36F"/>
</linearGradient>
</defs>
</svg>
