<svg width="44" height="44" viewBox="0 0 44 44" fill="none" xmlns="http://www.w3.org/2000/svg">
<rect width="44" height="44" rx="22" fill="#FF6B57"/>
<path fill-rule="evenodd" clip-rule="evenodd" d="M15.6996 13.6C14.5398 13.6 13.5996 14.5402 13.5996 15.7V27.25C13.5996 28.9896 15.0099 30.3999 16.7496 30.3999C18.4893 30.3999 19.8996 28.9896 19.8996 27.25V15.7C19.8996 14.5402 18.9594 13.6 17.7996 13.6H15.6996ZM16.7496 28.2999C17.3295 28.2999 17.7996 27.8298 17.7996 27.25C17.7996 26.6701 17.3295 26.2 16.7496 26.2C16.1697 26.2 15.6996 26.6701 15.6996 27.25C15.6996 27.8298 16.1697 28.2999 16.7496 28.2999Z" fill="white"/>
<path d="M21.9996 26.4546L27.144 21.3102C27.9641 20.4901 27.9641 19.1604 27.144 18.3403L25.6591 16.8554C24.839 16.0353 23.5094 16.0353 22.6893 16.8554L21.9996 17.5451V26.4546Z" fill="white"/>
<path d="M28.2996 30.3999H21.0242L27.3242 24.1H28.2996C29.4594 24.1 30.3996 25.0402 30.3996 26.2V28.2999C30.3996 29.4597 29.4594 30.3999 28.2996 30.3999Z" fill="white"/>
</svg>
