<svg width="24" height="24" viewBox="0 0 24 24" fill="none" xmlns="http://www.w3.org/2000/svg">
<rect width="24" height="24" rx="12" fill="#ff6B57"/>
<path d="M7.69951 11.6493L10.3332 12.5621C10.565 12.6424 10.6808 12.6825 10.7633 12.7669C10.8457 12.8513 10.8832 12.9681 10.958 13.2016L11.7973 15.8194C12.189 17.041 12.3848 17.6518 12.7496 17.6518C13.1143 17.6518 13.3102 17.041 13.7018 15.8194L16.027 8.56734C16.2935 7.736 16.4268 7.32033 16.2057 7.10435C15.9846 6.88836 15.5722 7.0313 14.7473 7.31717L7.69951 9.7596C6.5665 10.1522 6 10.3486 6 10.7045C6 11.0604 6.5665 11.2567 7.69951 11.6493Z" fill="#FFEDD5"/>
</svg>
