<svg width="14" height="15" viewBox="0 0 14 15" fill="none" xmlns="http://www.w3.org/2000/svg">
<path d="M3.69739 13.7454C2.1958 13.7454 0.978516 12.5282 0.978516 11.0266V2.86994C0.978516 2.11914 1.58716 1.5105 2.33795 1.5105H5.05683C5.80762 1.5105 6.41626 2.11914 6.41626 2.86994V11.0266C6.41626 12.5282 5.19898 13.7454 3.69739 13.7454ZM3.69739 13.7454H11.854C12.6048 13.7454 13.2134 13.1368 13.2134 12.386V9.66712C13.2134 8.91632 12.6048 8.30768 11.854 8.30768H10.2613M6.41628 4.4626L7.54246 3.33642C8.07335 2.80553 8.9341 2.80553 9.46499 3.33642L11.3875 5.25895C11.9184 5.78985 11.9184 6.6506 11.3875 7.18149L5.61992 12.9491M3.69739 11.0266H3.70419" stroke="#FF6B57" stroke-width="1.45945" stroke-linecap="round" stroke-linejoin="round"/>
</svg>
